<svg width="24" height="24" viewBox="0 0 24 24" fill="none" xmlns="http://www.w3.org/2000/svg">
<g clip-path="url(#clip0_3329_4762)">
<path fill-rule="evenodd" clip-rule="evenodd" d="M14.0002 5.33337C14.3684 5.33337 14.6668 5.63185 14.6668 6.00004L14.6665 6.66637L18.2395 6.66671C18.3881 6.66671 18.442 6.68218 18.4963 6.71123C18.5506 6.74028 18.5933 6.78291 18.6223 6.83723C18.6514 6.89155 18.6668 6.94543 18.6668 7.09402V7.57273C18.6668 7.72131 18.6514 7.77519 18.6223 7.82951C18.5933 7.88384 18.5506 7.92647 18.4963 7.95552C18.442 7.98457 18.3881 8.00004 18.2395 8.00004L17.3332 7.99971L17.3335 18C17.3335 18.3682 17.035 18.6667 16.6668 18.6667H7.3335C6.96531 18.6667 6.66683 18.3682 6.66683 18L6.6665 7.99971L5.76081 8.00004C5.61222 8.00004 5.55834 7.98457 5.50402 7.95552C5.4497 7.92647 5.40707 7.88384 5.37802 7.82951C5.34897 7.77519 5.3335 7.72131 5.3335 7.57273V7.09402C5.3335 6.94543 5.34897 6.89155 5.37802 6.83723C5.40707 6.78291 5.4497 6.74028 5.50402 6.71123C5.55834 6.68218 5.61222 6.66671 5.76081 6.66671L9.33316 6.66637L9.3335 6.00004C9.3335 5.63185 9.63197 5.33337 10.0002 5.33337H14.0002ZM15.9998 7.99971H7.99983L8.00016 17.3334H16.0002L15.9998 7.99971ZM11.0002 10C11.1843 10 11.3335 10.1493 11.3335 10.3334V15C11.3335 15.1841 11.1843 15.3334 11.0002 15.3334H10.3335C10.1494 15.3334 10.0002 15.1841 10.0002 15V10.3334C10.0002 10.1493 10.1494 10 10.3335 10H11.0002ZM13.6668 10C13.8509 10 14.0002 10.1493 14.0002 10.3334V15C14.0002 15.1841 13.8509 15.3334 13.6668 15.3334H13.0002C12.8161 15.3334 12.6668 15.1841 12.6668 15V10.3334C12.6668 10.1493 12.8161 10 13.0002 10H13.6668Z" fill="#42464E"/>
</g>
<defs>
<clipPath id="clip0_3329_4762">
<rect width="16" height="16" fill="white" transform="translate(4 4)"/>
</clipPath>
</defs>
</svg>
