<svg width="14" height="14" viewBox="0 0 14 14" fill="none" xmlns="http://www.w3.org/2000/svg">
<g clip-path="url(#clip0_3308_47517)">
<path fill-rule="evenodd" clip-rule="evenodd" d="M7 1.5C10.0376 1.5 12.5 3.96243 12.5 7C12.5 10.0376 10.0376 12.5 7 12.5C3.96243 12.5 1.5 10.0376 1.5 7C1.5 3.96243 3.96243 1.5 7 1.5ZM7 2.5C4.51472 2.5 2.5 4.51472 2.5 7C2.5 9.48528 4.51472 11.5 7 11.5C9.48528 11.5 11.5 9.48528 11.5 7C11.5 4.51472 9.48528 2.5 7 2.5ZM7.25 6.25C7.38807 6.25 7.5 6.36193 7.5 6.5V8.75H7.90625C8.04432 8.75 8.15625 8.86193 8.15625 9V9.53125C8.15625 9.66932 8.04432 9.78125 7.90625 9.78125H6C5.86193 9.78125 5.75 9.66932 5.75 9.53125V9C5.75 8.86193 5.86193 8.75 6 8.75H6.5V7.28125H6.25C6.11193 7.28125 6 7.16932 6 7.03125V6.5C6 6.36193 6.11193 6.25 6.25 6.25H7.25ZM7.25 4.25C7.38807 4.25 7.5 4.36193 7.5 4.5V5.25C7.5 5.38807 7.38807 5.5 7.25 5.5H6.5C6.36193 5.5 6.25 5.38807 6.25 5.25V4.5C6.25 4.36193 6.36193 4.25 6.5 4.25H7.25Z" fill="#BD7E00"/>
</g>
<defs>
<clipPath id="clip0_3308_47517">
<rect width="12" height="12" fill="white" transform="translate(1 1)"/>
</clipPath>
</defs>
</svg>
