<svg width="16" height="16" viewBox="0 0 16 16" fill="none" xmlns="http://www.w3.org/2000/svg">
<g clip-path="url(#clip0_3309_1105)">
<path fill-rule="evenodd" clip-rule="evenodd" d="M10.0002 1.33331C10.3684 1.33331 10.6668 1.63179 10.6668 1.99998L10.6665 2.66631L14.2395 2.66665C14.3881 2.66665 14.442 2.68212 14.4963 2.71117C14.5506 2.74022 14.5933 2.78285 14.6223 2.83717C14.6514 2.89149 14.6668 2.94537 14.6668 3.09396V3.57267C14.6668 3.72125 14.6514 3.77513 14.6223 3.82945C14.5933 3.88377 14.5506 3.92641 14.4963 3.95546C14.442 3.98451 14.3881 3.99998 14.2395 3.99998L13.3332 3.99965L13.3335 14C13.3335 14.3682 13.035 14.6666 12.6668 14.6666H3.3335C2.96531 14.6666 2.66683 14.3682 2.66683 14L2.6665 3.99965L1.76081 3.99998C1.61222 3.99998 1.55834 3.98451 1.50402 3.95546C1.4497 3.92641 1.40707 3.88377 1.37802 3.82945C1.34897 3.77513 1.3335 3.72125 1.3335 3.57267V3.09396C1.3335 2.94537 1.34897 2.89149 1.37802 2.83717C1.40707 2.78285 1.4497 2.74022 1.50402 2.71117C1.55834 2.68212 1.61222 2.66665 1.76081 2.66665L5.33316 2.66631L5.3335 1.99998C5.3335 1.63179 5.63197 1.33331 6.00016 1.33331H10.0002ZM11.9998 3.99965H3.99983L4.00016 13.3333H12.0002L11.9998 3.99965ZM7.00016 5.99998C7.18426 5.99998 7.3335 6.14922 7.3335 6.33331V11C7.3335 11.1841 7.18426 11.3333 7.00016 11.3333H6.3335C6.1494 11.3333 6.00016 11.1841 6.00016 11V6.33331C6.00016 6.14922 6.1494 5.99998 6.3335 5.99998H7.00016ZM9.66683 5.99998C9.85092 5.99998 10.0002 6.14922 10.0002 6.33331V11C10.0002 11.1841 9.85092 11.3333 9.66683 11.3333H9.00016C8.81607 11.3333 8.66683 11.1841 8.66683 11V6.33331C8.66683 6.14922 8.81607 5.99998 9.00016 5.99998H9.66683Z" fill="#42464E"/>
</g>
<defs>
<clipPath id="clip0_3309_1105">
<rect width="16" height="16" fill="white"/>
</clipPath>
</defs>
</svg>
