<svg width="12" height="12" viewBox="0 0 12 12" fill="none" xmlns="http://www.w3.org/2000/svg">
<g clip-path="url(#clip0_3309_1968)">
<path d="M8.33669 3.12693L8.87294 3.66317C9.04217 3.83241 9.04217 4.1068 8.87294 4.27603L7.14877 5.99989L8.87294 7.72397C9.04217 7.8932 9.04217 8.16759 8.87294 8.33682L8.33669 8.87307C8.16745 9.04231 7.89307 9.04231 7.72383 8.87307L5.9993 7.14828L4.27652 8.87245C4.10728 9.04168 3.8329 9.04168 3.66366 8.87245L3.12741 8.3362C2.95818 8.16696 2.95818 7.89258 3.12741 7.72334L4.84983 5.99989L3.12741 4.27666C2.95818 4.10742 2.95818 3.83304 3.12741 3.6638L3.66366 3.12755C3.8329 2.95832 4.10728 2.95832 4.27652 3.12755L5.9993 4.85042L7.72383 3.12693C7.89307 2.95769 8.16745 2.95769 8.33669 3.12693Z" fill="#737A87"/>
</g>
<defs>
<clipPath id="clip0_3309_1968">
<rect width="12" height="12" fill="white"/>
</clipPath>
</defs>
</svg>
