<svg width="16" height="16" viewBox="0 0 16 16" fill="none" xmlns="http://www.w3.org/2000/svg">
<g clip-path="url(#clip0_3309_1046)">
<path d="M11.1154 4.16924L11.8304 4.88423C12.0561 5.10988 12.0561 5.47573 11.8304 5.70137L9.53153 7.99986L11.8304 10.2986C12.0561 10.5243 12.0561 10.8901 11.8304 11.1158L11.1154 11.8308C10.8898 12.0564 10.5239 12.0564 10.2983 11.8308L7.9989 9.53104L5.70186 11.8299C5.47622 12.0556 5.11037 12.0556 4.88472 11.8299L4.16972 11.1149C3.94408 10.8893 3.94408 10.5234 4.16972 10.2978L6.46627 7.99986L4.16972 5.70221C3.94408 5.47656 3.94408 5.11072 4.16972 4.88507L4.88472 4.17007C5.11037 3.94442 5.47622 3.94442 5.70186 4.17007L7.9989 6.46723L10.2983 4.16924C10.5239 3.94359 10.8898 3.94359 11.1154 4.16924Z" fill="#42464E"/>
</g>
<defs>
<clipPath id="clip0_3309_1046">
<rect width="16" height="16" fill="white"/>
</clipPath>
</defs>
</svg>
