<svg width="16" height="16" viewBox="0 0 16 16" fill="none" xmlns="http://www.w3.org/2000/svg">
<g clip-path="url(#clip0_3346_2100)">
<path fill-rule="evenodd" clip-rule="evenodd" d="M10.0002 1.33334C10.3684 1.33334 10.6668 1.63182 10.6668 2.00001L10.6665 2.66634L14.2395 2.66668C14.3881 2.66668 14.442 2.68215 14.4963 2.7112C14.5506 2.74025 14.5933 2.78288 14.6223 2.8372C14.6514 2.89152 14.6668 2.9454 14.6668 3.09399V3.5727C14.6668 3.72128 14.6514 3.77516 14.6223 3.82948C14.5933 3.88381 14.5506 3.92644 14.4963 3.95549C14.442 3.98454 14.3881 4.00001 14.2395 4.00001L13.3332 3.99968L13.3335 14C13.3335 14.3682 13.035 14.6667 12.6668 14.6667H3.3335C2.96531 14.6667 2.66683 14.3682 2.66683 14L2.6665 3.99968L1.76081 4.00001C1.61222 4.00001 1.55834 3.98454 1.50402 3.95549C1.4497 3.92644 1.40707 3.88381 1.37802 3.82948C1.34897 3.77516 1.3335 3.72128 1.3335 3.5727V3.09399C1.3335 2.9454 1.34897 2.89152 1.37802 2.8372C1.40707 2.78288 1.4497 2.74025 1.50402 2.7112C1.55834 2.68215 1.61222 2.66668 1.76081 2.66668L5.33316 2.66634L5.3335 2.00001C5.3335 1.63182 5.63197 1.33334 6.00016 1.33334H10.0002ZM11.9998 3.99968H3.99983L4.00016 13.3333H12.0002L11.9998 3.99968ZM7.00016 6.00001C7.18426 6.00001 7.3335 6.14925 7.3335 6.33334V11C7.3335 11.1841 7.18426 11.3333 7.00016 11.3333H6.3335C6.1494 11.3333 6.00016 11.1841 6.00016 11V6.33334C6.00016 6.14925 6.1494 6.00001 6.3335 6.00001H7.00016ZM9.66683 6.00001C9.85092 6.00001 10.0002 6.14925 10.0002 6.33334V11C10.0002 11.1841 9.85092 11.3333 9.66683 11.3333H9.00016C8.81607 11.3333 8.66683 11.1841 8.66683 11V6.33334C8.66683 6.14925 8.81607 6.00001 9.00016 6.00001H9.66683Z" fill="#42464E"/>
</g>
<defs>
<clipPath id="clip0_3346_2100">
<rect width="16" height="16" fill="white"/>
</clipPath>
</defs>
</svg>
