<svg width="16" height="16" viewBox="0 0 16 16" fill="none" xmlns="http://www.w3.org/2000/svg">
<g clip-path="url(#clip0_3346_2247)">
<path fill-rule="evenodd" clip-rule="evenodd" d="M10.0002 1.33337C10.3684 1.33337 10.6668 1.63185 10.6668 2.00004L10.6665 2.66637L14.2395 2.66671C14.3881 2.66671 14.442 2.68218 14.4963 2.71123C14.5506 2.74028 14.5933 2.78291 14.6223 2.83723C14.6514 2.89155 14.6668 2.94543 14.6668 3.09402V3.57273C14.6668 3.72131 14.6514 3.77519 14.6223 3.82951C14.5933 3.88384 14.5506 3.92647 14.4963 3.95552C14.442 3.98457 14.3881 4.00004 14.2395 4.00004L13.3332 3.99971L13.3335 14C13.3335 14.3682 13.035 14.6667 12.6668 14.6667H3.3335C2.96531 14.6667 2.66683 14.3682 2.66683 14L2.6665 3.99971L1.76081 4.00004C1.61222 4.00004 1.55834 3.98457 1.50402 3.95552C1.4497 3.92647 1.40707 3.88384 1.37802 3.82951C1.34897 3.77519 1.3335 3.72131 1.3335 3.57273V3.09402C1.3335 2.94543 1.34897 2.89155 1.37802 2.83723C1.40707 2.78291 1.4497 2.74028 1.50402 2.71123C1.55834 2.68218 1.61222 2.66671 1.76081 2.66671L5.33316 2.66637L5.3335 2.00004C5.3335 1.63185 5.63197 1.33337 6.00016 1.33337H10.0002ZM11.9998 3.99971H3.99983L4.00016 13.3334H12.0002L11.9998 3.99971ZM7.00016 6.00004C7.18426 6.00004 7.3335 6.14928 7.3335 6.33337V11C7.3335 11.1841 7.18426 11.3334 7.00016 11.3334H6.3335C6.1494 11.3334 6.00016 11.1841 6.00016 11V6.33337C6.00016 6.14928 6.1494 6.00004 6.3335 6.00004H7.00016ZM9.66683 6.00004C9.85092 6.00004 10.0002 6.14928 10.0002 6.33337V11C10.0002 11.1841 9.85092 11.3334 9.66683 11.3334H9.00016C8.81607 11.3334 8.66683 11.1841 8.66683 11V6.33337C8.66683 6.14928 8.81607 6.00004 9.00016 6.00004H9.66683Z" fill="#42464E"/>
</g>
<defs>
<clipPath id="clip0_3346_2247">
<rect width="16" height="16" fill="white"/>
</clipPath>
</defs>
</svg>
