<svg width="60" height="60" viewBox="0 0 60 60" fill="none" xmlns="http://www.w3.org/2000/svg">
<g filter="url(#filter0_dii_3324_6072)">
<path d="M9.50009 7.50311C9.50004 5.57008 11.0671 4.00302 13.0001 4.00302H34.3232L50.4987 20.1054L50.4999 52.4999C50.4999 54.4329 48.9329 56 46.9999 56H13.0012C11.0682 56 9.50125 54.433 9.5012 52.5001L9.50009 7.50311Z" fill="url(#paint0_linear_3324_6072)"/>
<path d="M13 4.15341H34.2617L50.3486 20.1681L50.3496 52.5001C50.3496 54.3502 48.8501 55.8496 47 55.8497H13.001C11.151 55.8496 9.65142 54.3501 9.65137 52.5001L9.65039 7.50302C9.65039 5.6529 11.1499 4.15346 13 4.15341Z" stroke="url(#paint1_linear_3324_6072)" stroke-width="0.3"/>
</g>
<g filter="url(#filter1_i_3324_6072)">
<rect x="15.6392" y="31.839" width="25.6935" height="2.89395" rx="1.44698" fill="#E7E7E7"/>
</g>
<rect x="15.5392" y="31.739" width="25.8935" height="3.09395" rx="1.54698" stroke="url(#paint2_linear_3324_6072)" stroke-width="0.2"/>
<g filter="url(#filter2_i_3324_6072)">
<rect x="15.6392" y="40.305" width="20.1745" height="2.89395" rx="1.44698" fill="#E7E7E7"/>
</g>
<rect x="15.5392" y="40.205" width="20.3745" height="3.09395" rx="1.54698" stroke="url(#paint3_linear_3324_6072)" stroke-width="0.2"/>
<path d="M18.854 16.8928C18.9854 16.8928 19.0921 16.9997 19.0923 17.1311V17.6945C19.0921 17.8259 18.9854 17.9328 18.854 17.9328H16.2485C16.2223 17.9328 16.2008 17.9535 16.2007 17.9797V19.3664C16.2007 19.3927 16.2222 19.4143 16.2485 19.4143H18.4614C18.5929 19.4143 18.6997 19.5211 18.6997 19.6526V20.1985C18.6997 20.3299 18.5929 20.4367 18.4614 20.4367H16.2485C16.2222 20.4367 16.2007 20.4583 16.2007 20.4846V22.0617C16.2007 22.088 16.2222 22.1096 16.2485 22.1096H18.8833C19.0148 22.1096 19.1216 22.2164 19.1216 22.3479V22.9026C19.1215 23.034 19.0148 23.1408 18.8833 23.1408H15.1909C15.0596 23.1407 14.9527 23.0339 14.9526 22.9026V17.1311C14.9528 16.9998 15.0596 16.8929 15.1909 16.8928H18.854ZM29.7114 16.8928C30.4078 16.8928 30.9719 17.074 31.3921 17.4455C31.8155 17.8174 32.0258 18.3102 32.0259 18.9143C32.0259 19.4539 31.8686 19.8971 31.5493 20.2346L31.4028 20.3723C30.9902 20.7215 30.4183 20.8898 29.6997 20.8899H28.5845C28.5582 20.8899 28.5366 20.9114 28.5366 20.9377V22.9026C28.5366 23.034 28.4298 23.1408 28.2983 23.1408H27.5269C27.3955 23.1408 27.2886 23.034 27.2886 22.9026V17.1311C27.2887 16.9998 27.3955 16.8929 27.5269 16.8928H29.7114ZM37.1118 16.8928C37.2431 16.8929 37.35 16.9998 37.3501 17.1311V17.6945C37.35 17.8259 37.2431 17.9328 37.1118 17.9328H35.5005C35.4743 17.9328 35.4528 17.9535 35.4526 17.9797V22.9026C35.4526 23.034 35.3458 23.1408 35.2144 23.1408H34.4517C34.3202 23.1408 34.2134 23.034 34.2134 22.9026V17.9797C34.2132 17.9535 34.1917 17.9328 34.1655 17.9328H32.5708C32.4394 17.9328 32.3327 17.8259 32.3325 17.6945V17.1311C32.3327 16.9997 32.4394 16.8928 32.5708 16.8928H37.1118ZM38.6196 16.8928C38.7105 16.8928 38.7936 16.945 38.8335 17.0266L40.0659 19.5539C40.0833 19.5895 40.1345 19.5896 40.1519 19.5539L41.3843 17.0266C41.4243 16.9451 41.5073 16.8928 41.5981 16.8928H42.4409C42.6204 16.893 42.7353 17.0849 42.6509 17.2434L40.7397 20.8293C40.7362 20.8361 40.7349 20.8442 40.7349 20.8518V22.9026C40.7348 23.034 40.628 23.1408 40.4966 23.1408H39.7212C39.5897 23.1408 39.4829 23.034 39.4829 22.9026V20.8518C39.4829 20.8441 39.4806 20.8361 39.4771 20.8293L37.563 17.2434C37.4783 17.0848 37.5932 16.8928 37.7729 16.8928H38.6196ZM29.7407 17.9319L28.5845 17.9328C28.5583 17.9328 28.5368 17.9535 28.5366 17.9797V19.8078C28.5368 19.834 28.5583 19.8547 28.5845 19.8547H29.7114C30.0741 19.8547 30.335 19.7703 30.5093 19.6164C30.6816 19.4614 30.7739 19.2356 30.7739 18.9231C30.7739 18.6169 30.6812 18.3823 30.5024 18.2092H30.5015C30.3226 18.0336 30.0731 17.9373 29.7407 17.9319ZM21.0356 22.9026C21.0356 23.034 20.9288 23.1408 20.7974 23.1408H20.0298C19.8985 23.1406 19.7925 23.0339 19.7925 22.9026V17.1311C19.7926 16.9999 19.8986 16.893 20.0298 16.8928H21.1597C21.2585 16.8929 21.3474 16.9546 21.3823 17.0471L22.9683 21.2434C22.9838 21.2844 23.0416 21.2843 23.0571 21.2434L24.6401 17.0471C24.6751 16.9545 24.7638 16.8928 24.8628 16.8928H25.9878C26.1191 16.8928 26.2259 16.9997 26.2261 17.1311V22.9026C26.226 23.034 26.1192 23.1408 25.9878 23.1408H25.2202C25.0888 23.1408 24.982 23.034 24.9819 22.9026V21.0451L25.0532 19.2356C25.0539 19.219 25.0487 19.2095 25.0435 19.2033C25.0373 19.1961 25.0275 19.1893 25.0151 19.1867C25.0028 19.1842 24.9914 19.1865 24.9829 19.1906C24.9756 19.1943 24.9675 19.2014 24.9614 19.217L23.5093 22.9885C23.4738 23.0802 23.385 23.1408 23.2866 23.1408H22.7271C22.6285 23.1408 22.5397 23.0795 22.5044 22.9875L21.0571 19.2219C21.0512 19.2068 21.0428 19.2002 21.0356 19.1965C21.0272 19.1923 21.0148 19.1901 21.0024 19.1926C20.9903 19.1952 20.9802 19.2011 20.9741 19.2082C20.9688 19.2144 20.9647 19.2247 20.9653 19.2414L21.0356 21.0451V22.9026Z" fill="#949CBD" stroke="url(#paint4_linear_3324_6072)" stroke-width="0.190454"/>
<g filter="url(#filter3_d_3324_6072)">
<mask id="path-8-inside-1_3324_6072" fill="white">
<path d="M50.4995 20.627C50.4974 20.6135 50.373 19.8409 49.1519 19.8408H50.4995V20.627ZM34.5796 4L50.4985 19.8379H38.2495C36.3354 19.8379 34.776 18.3006 34.7495 16.3867L34.5835 4.28418V5.34473C34.5835 4.12362 33.8004 4.00397 33.7935 4.00293H34.5796V4Z"/>
</mask>
<path d="M50.4995 20.627C50.4974 20.6135 50.373 19.8409 49.1519 19.8408H50.4995V20.627ZM34.5796 4L50.4985 19.8379H38.2495C36.3354 19.8379 34.776 18.3006 34.7495 16.3867L34.5835 4.28418V5.34473C34.5835 4.12362 33.8004 4.00397 33.7935 4.00293H34.5796V4Z" fill="url(#paint5_linear_3324_6072)"/>
<path d="M50.4995 20.627L50.0954 20.6893L50.9084 20.627H50.4995ZM49.1519 19.8408V19.4319L49.1518 20.2497L49.1519 19.8408ZM50.4995 19.8408H50.9084V19.4319H50.4995V19.8408ZM34.5796 4L34.868 3.71014L34.1707 3.01641V4H34.5796ZM50.4985 19.8379V20.2468H51.4893L50.7869 19.548L50.4985 19.8379ZM38.2495 19.8379L38.2495 20.2468H38.2495V19.8379ZM34.7495 16.3867L34.3407 16.3923L34.3407 16.3924L34.7495 16.3867ZM34.5835 4.28418L34.9923 4.27857L34.1746 4.28418H34.5835ZM33.7935 4.00293V3.59404L33.733 4.40733L33.7935 4.00293ZM34.5796 4.00293V4.41182H34.9885V4.00293H34.5796ZM50.4995 20.627L50.9036 20.5646C50.8956 20.5126 50.8421 20.2255 50.5801 19.9481C50.3071 19.6591 49.8566 19.432 49.1519 19.4319L49.1519 19.8408L49.1518 20.2497C49.6683 20.2498 49.8906 20.409 49.9856 20.5096C50.0916 20.6219 50.1013 20.7278 50.0954 20.6893L50.4995 20.627ZM49.1519 19.8408V20.2497H50.4995V19.8408V19.4319H49.1519V19.8408ZM50.4995 19.8408H50.0906V20.627H50.4995H50.9084V19.8408H50.4995ZM34.5796 4L34.2912 4.28986L50.2101 20.1278L50.4985 19.8379L50.7869 19.548L34.868 3.71014L34.5796 4ZM50.4985 19.8379V19.429H38.2495V19.8379V20.2468H50.4985V19.8379ZM38.2495 19.8379L38.2495 19.429C36.5589 19.429 35.1818 18.0712 35.1584 16.3811L34.7495 16.3867L34.3407 16.3924C34.3703 18.5299 36.1119 20.2467 38.2495 20.2468L38.2495 19.8379ZM34.7495 16.3867L35.1584 16.3811L34.9923 4.27857L34.5835 4.28418L34.1746 4.28979L34.3407 16.3923L34.7495 16.3867ZM34.5835 4.28418H34.1746V5.34473H34.5835H34.9924V4.28418H34.5835ZM34.5835 5.34473H34.9924C34.9924 4.63831 34.7615 4.18812 34.4694 3.91674C34.1897 3.6569 33.9017 3.60568 33.8539 3.59853L33.7935 4.00293L33.733 4.40733C33.6921 4.40121 33.7992 4.41034 33.9128 4.51587C34.0139 4.60985 34.1746 4.83004 34.1746 5.34473H34.5835ZM33.7935 4.00293V4.41182H34.5796V4.00293V3.59404H33.7935V4.00293ZM34.5796 4.00293H34.9885V4H34.5796H34.1707V4.00293H34.5796Z" fill="url(#paint6_linear_3324_6072)" mask="url(#path-8-inside-1_3324_6072)"/>
</g>
<defs>
<filter id="filter0_dii_3324_6072" x="9" y="3.75302" width="42" height="53.247" filterUnits="userSpaceOnUse" color-interpolation-filters="sRGB">
<feFlood flood-opacity="0" result="BackgroundImageFix"/>
<feColorMatrix in="SourceAlpha" type="matrix" values="0 0 0 0 0 0 0 0 0 0 0 0 0 0 0 0 0 0 127 0" result="hardAlpha"/>
<feOffset dy="0.5"/>
<feGaussianBlur stdDeviation="0.25"/>
<feComposite in2="hardAlpha" operator="out"/>
<feColorMatrix type="matrix" values="0 0 0 0 0 0 0 0 0 0 0 0 0 0 0 0 0 0 0.1 0"/>
<feBlend mode="normal" in2="BackgroundImageFix" result="effect1_dropShadow_3324_6072"/>
<feBlend mode="normal" in="SourceGraphic" in2="effect1_dropShadow_3324_6072" result="shape"/>
<feColorMatrix in="SourceAlpha" type="matrix" values="0 0 0 0 0 0 0 0 0 0 0 0 0 0 0 0 0 0 127 0" result="hardAlpha"/>
<feOffset dx="0.8" dy="0.8"/>
<feGaussianBlur stdDeviation="0.25"/>
<feComposite in2="hardAlpha" operator="arithmetic" k2="-1" k3="1"/>
<feColorMatrix type="matrix" values="0 0 0 0 1 0 0 0 0 1 0 0 0 0 1 0 0 0 1 0"/>
<feBlend mode="normal" in2="shape" result="effect2_innerShadow_3324_6072"/>
<feColorMatrix in="SourceAlpha" type="matrix" values="0 0 0 0 0 0 0 0 0 0 0 0 0 0 0 0 0 0 127 0" result="hardAlpha"/>
<feOffset dy="-0.75"/>
<feGaussianBlur stdDeviation="0.125"/>
<feComposite in2="hardAlpha" operator="arithmetic" k2="-1" k3="1"/>
<feColorMatrix type="matrix" values="0 0 0 0 0.879167 0 0 0 0 0.879167 0 0 0 0 0.879167 0 0 0 1 0"/>
<feBlend mode="normal" in2="effect2_innerShadow_3324_6072" result="effect3_innerShadow_3324_6072"/>
</filter>
<filter id="filter1_i_3324_6072" x="15.189" y="31.6389" width="26.3438" height="3.54398" filterUnits="userSpaceOnUse" color-interpolation-filters="sRGB">
<feFlood flood-opacity="0" result="BackgroundImageFix"/>
<feBlend mode="normal" in="SourceGraphic" in2="BackgroundImageFix" result="shape"/>
<feColorMatrix in="SourceAlpha" type="matrix" values="0 0 0 0 0 0 0 0 0 0 0 0 0 0 0 0 0 0 127 0" result="hardAlpha"/>
<feOffset dx="-0.952269" dy="0.714202"/>
<feGaussianBlur stdDeviation="0.125"/>
<feComposite in2="hardAlpha" operator="arithmetic" k2="-1" k3="1"/>
<feColorMatrix type="matrix" values="0 0 0 0 0.729167 0 0 0 0 0.729167 0 0 0 0 0.729167 0 0 0 0.3 0"/>
<feBlend mode="normal" in2="shape" result="effect1_innerShadow_3324_6072"/>
</filter>
<filter id="filter2_i_3324_6072" x="15.189" y="40.105" width="20.8247" height="3.54398" filterUnits="userSpaceOnUse" color-interpolation-filters="sRGB">
<feFlood flood-opacity="0" result="BackgroundImageFix"/>
<feBlend mode="normal" in="SourceGraphic" in2="BackgroundImageFix" result="shape"/>
<feColorMatrix in="SourceAlpha" type="matrix" values="0 0 0 0 0 0 0 0 0 0 0 0 0 0 0 0 0 0 127 0" result="hardAlpha"/>
<feOffset dx="-0.952269" dy="0.714202"/>
<feGaussianBlur stdDeviation="0.125"/>
<feComposite in2="hardAlpha" operator="arithmetic" k2="-1" k3="1"/>
<feColorMatrix type="matrix" values="0 0 0 0 0.729167 0 0 0 0 0.729167 0 0 0 0 0.729167 0 0 0 0.3 0"/>
<feBlend mode="normal" in2="shape" result="effect1_innerShadow_3324_6072"/>
</filter>
<filter id="filter3_d_3324_6072" x="32.6031" y="4" width="18.6106" height="19.0076" filterUnits="userSpaceOnUse" color-interpolation-filters="sRGB">
<feFlood flood-opacity="0" result="BackgroundImageFix"/>
<feColorMatrix in="SourceAlpha" type="matrix" values="0 0 0 0 0 0 0 0 0 0 0 0 0 0 0 0 0 0 127 0" result="hardAlpha"/>
<feOffset dx="-0.238067" dy="1.4284"/>
<feGaussianBlur stdDeviation="0.476135"/>
<feComposite in2="hardAlpha" operator="out"/>
<feColorMatrix type="matrix" values="0 0 0 0 0 0 0 0 0 0 0 0 0 0 0 0 0 0 0.25 0"/>
<feBlend mode="normal" in2="BackgroundImageFix" result="effect1_dropShadow_3324_6072"/>
<feBlend mode="normal" in="SourceGraphic" in2="effect1_dropShadow_3324_6072" result="shape"/>
</filter>
<linearGradient id="paint0_linear_3324_6072" x1="43.1013" y1="10.3781" x2="8.46532" y2="58.0589" gradientUnits="userSpaceOnUse">
<stop stop-color="#FCFCFC"/>
<stop offset="0.855332" stop-color="#F4F4F4"/>
</linearGradient>
<linearGradient id="paint1_linear_3324_6072" x1="26.105" y1="4.00302" x2="18.8323" y2="54.2655" gradientUnits="userSpaceOnUse">
<stop stop-color="#E8E8EB"/>
<stop offset="0.192009" stop-color="#DEDEDE"/>
<stop offset="0.703503" stop-color="#D8D8D8"/>
<stop offset="0.962692" stop-color="#C3C3C7"/>
</linearGradient>
<linearGradient id="paint2_linear_3324_6072" x1="30.7211" y1="29.3618" x2="29.405" y2="36.1072" gradientUnits="userSpaceOnUse">
<stop offset="0.272911" stop-color="#BEBEBE"/>
<stop offset="0.794908" stop-color="#DADADD"/>
<stop offset="1" stop-color="#DFDFDF"/>
</linearGradient>
<linearGradient id="paint3_linear_3324_6072" x1="27.4815" y1="37.8279" x2="25.8427" y2="44.4228" gradientUnits="userSpaceOnUse">
<stop offset="0.272911" stop-color="#BEBEBE"/>
<stop offset="0.794908" stop-color="#DADADD"/>
<stop offset="1" stop-color="#DFDFDF"/>
</linearGradient>
<linearGradient id="paint4_linear_3324_6072" x1="25.4193" y1="18.1113" x2="26.0288" y2="23.0655" gradientUnits="userSpaceOnUse">
<stop offset="0.0101196" stop-color="#8D97BB"/>
<stop offset="1" stop-color="#7A84AB"/>
</linearGradient>
<linearGradient id="paint5_linear_3324_6072" x1="44.8972" y1="10.9859" x2="37.2323" y2="20.8177" gradientUnits="userSpaceOnUse">
<stop offset="0.162459" stop-color="#F2F2F2"/>
<stop offset="0.738" stop-color="white"/>
</linearGradient>
<linearGradient id="paint6_linear_3324_6072" x1="32.5203" y1="21.9591" x2="40.2148" y2="14.2697" gradientUnits="userSpaceOnUse">
<stop stop-color="#E2E2E2"/>
<stop offset="1" stop-color="#9C9C9C" stop-opacity="0"/>
</linearGradient>
</defs>
</svg>
