<svg width="12" height="12" viewBox="0 0 12 12" fill="none" xmlns="http://www.w3.org/2000/svg">
<g clip-path="url(#clip0_3620_2610)">
<path fill-rule="evenodd" clip-rule="evenodd" d="M6 0.5C9.03757 0.5 11.5 2.96243 11.5 6C11.5 9.03757 9.03757 11.5 6 11.5C2.96243 11.5 0.5 9.03757 0.5 6C0.5 2.96243 2.96243 0.5 6 0.5ZM6 1.5C3.51472 1.5 1.5 3.51472 1.5 6C1.5 8.48528 3.51472 10.5 6 10.5C8.48528 10.5 10.5 8.48528 10.5 6C10.5 3.51472 8.48528 1.5 6 1.5ZM6.25 5.25C6.38807 5.25 6.5 5.36193 6.5 5.5V7.75H6.90625C7.04432 7.75 7.15625 7.86193 7.15625 8V8.53125C7.15625 8.66932 7.04432 8.78125 6.90625 8.78125H5C4.86193 8.78125 4.75 8.66932 4.75 8.53125V8C4.75 7.86193 4.86193 7.75 5 7.75H5.5V6.28125H5.25C5.11193 6.28125 5 6.16932 5 6.03125V5.5C5 5.36193 5.11193 5.25 5.25 5.25H6.25ZM6.25 3.25C6.38807 3.25 6.5 3.36193 6.5 3.5V4.25C6.5 4.38807 6.38807 4.5 6.25 4.5H5.5C5.36193 4.5 5.25 4.38807 5.25 4.25V3.5C5.25 3.36193 5.36193 3.25 5.5 3.25H6.25Z" fill="#BD7E00"/>
</g>
<defs>
<clipPath id="clip0_3620_2610">
<rect width="12" height="12" fill="white"/>
</clipPath>
</defs>
</svg>
