<svg width="14" height="14" viewBox="0 0 14 14" fill="none" xmlns="http://www.w3.org/2000/svg">
<g clip-path="url(#clip0_3654_6938)">
<path fill-rule="evenodd" clip-rule="evenodd" d="M6.857 0.571426C10.3285 0.571426 13.1427 3.38564 13.1427 6.85714C13.1427 10.3286 10.3285 13.1429 6.857 13.1429C3.3855 13.1429 0.571289 10.3286 0.571289 6.85714C0.571289 3.38564 3.3855 0.571426 6.857 0.571426ZM6.857 1.71428C4.01668 1.71428 1.71415 4.01682 1.71415 6.85714C1.71415 9.69746 4.01668 12 6.857 12C9.69732 12 11.9999 9.69746 11.9999 6.85714C11.9999 4.01682 9.69732 1.71428 6.857 1.71428ZM7.14272 6C7.30051 6 7.42843 6.12792 7.42843 6.28571V8.85714H7.89272C8.05051 8.85714 8.17843 8.98506 8.17843 9.14285V9.75C8.17843 9.90779 8.05051 10.0357 7.89272 10.0357H5.71415C5.55635 10.0357 5.42843 9.90779 5.42843 9.75V9.14285C5.42843 8.98506 5.55635 8.85714 5.71415 8.85714H6.28557V7.17857H5.99986C5.84206 7.17857 5.71415 7.05065 5.71415 6.89285V6.28571C5.71415 6.12792 5.84206 6 5.99986 6H7.14272ZM7.14272 3.71428C7.30051 3.71428 7.42843 3.8422 7.42843 4V4.85714C7.42843 5.01494 7.30051 5.14285 7.14272 5.14285H6.28557C6.12778 5.14285 5.99986 5.01494 5.99986 4.85714V4C5.99986 3.8422 6.12778 3.71428 6.28557 3.71428H7.14272Z" fill="#42464E"/>
</g>
<defs>
<clipPath id="clip0_3654_6938">
<rect width="13.7143" height="13.7143" fill="white"/>
</clipPath>
</defs>
</svg>
